{
  "source": "C:\\Users\\Peter\\Desktop\\stuff\\MIUN\\quantitative_research\\video_compression\\videos\\BVI-HD\\KineticFastPainting_1920x1080_60fps.mp4",
  "output": "C:\\Users\\Peter\\Desktop\\stuff\\MIUN\\quantitative_research\\video_compression\\compressed_videos\\BVI-HD\\h264\\12\\KineticFastPainting_1920x1080_60fps_h264.mp4",
  "codec": "h264",
  "ok": "Input #0, mov,mp4,m4a,3gp,3g2,mj2, from 'C:\\Users\\Peter\\Desktop\\stuff\\MIUN\\quantitative_research\\video_compression\\videos\\BVI-HD\\KineticFastPainting_1920x1080_60fps.mp4':\n  Metadata:\n    major_brand     : isom\n    minor_version   : 512\n    compatible_brands: isomiso2avc1mp41\n    encoder         : Lavf54.28.101\n  Duration: 00:00:05.00, start: 0.000000, bitrate: 477980 kb/s\n  Stream #0:0[0x1](und): Video: h264 (High 4:4:4 Predictive) (avc1 / 0x31637661), yuv420p(progressive), 1920x1080, 477974 kb/s, 60 fps, 60 tbr, 60 tbn (default)\n    Metadata:\n      handler_name    : VideoHandler\n      vendor_id       : [0][0][0][0]\n[out#0/mp4 @ 000001ac9fff9c40] Codec AVOption b:a (set bitrate (in bits/s)) has not been used for any stream. The most likely reason is either wrong type (e.g. a video option with no video streams) or that it is a private option of some decoder which was not actually used for any stream.\nStream mapping:\n  Stream #0:0 -> #0:0 (h264 (native) -> h264 (libx264))\nPress [q] to stop, [?] for help\n[libx264 @ 000001aca0a60340] using cpu capabilities: MMX2 SSE2Fast SSSE3 SSE4.2 AVX FMA3 BMI2 AVX2\n[libx264 @ 000001aca0a60340] profile High, level 5.0, 4:2:0, 8-bit\n[libx264 @ 000001aca0a60340] 264 - core 165 r3222 b35605a - H.264/MPEG-4 AVC codec - Copyleft 2003-2025 - http://www.videolan.org/x264.html - options: cabac=1 ref=5 deblock=1:0:0 analyse=0x3:0x113 me=hex subme=8 psy=1 psy_rd=1.00:0.00 mixed_ref=1 me_range=16 chroma_me=1 trellis=2 8x8dct=1 cqm=0 deadzone=21,11 fast_pskip=1 chroma_qp_offset=-2 threads=18 lookahead_threads=3 sliced_threads=0 nr=0 decimate=1 interlaced=0 bluray_compat=0 constrained_intra=0 bframes=3 b_pyramid=2 b_adapt=1 b_bias=0 direct=3 weightb=1 open_gop=0 weightp=2 keyint=250 keyint_min=25 scenecut=40 intra_refresh=0 rc_lookahead=50 rc=cbr mbtree=1 bitrate=12000 ratetol=1.0 qcomp=0.60 qpmin=0 qpmax=69 qpstep=4 vbv_maxrate=12000 vbv_bufsize=12000 nal_hrd=none filler=0 ip_ratio=1.40 aq=1:1.00\nOutput #0, mp4, to 'C:\\Users\\Peter\\Desktop\\stuff\\MIUN\\quantitative_research\\video_compression\\compressed_videos\\BVI-HD\\h264\\12\\KineticFastPainting_1920x1080_60fps_h264.mp4':\n  Metadata:\n    major_brand     : isom\n    minor_version   : 512\n    compatible_brands: isomiso2avc1mp41\n    encoder         : Lavf62.3.100\n  Stream #0:0(und): Video: h264 (avc1 / 0x31637661), yuv420p(tv, progressive), 1920x1080, q=2-31, 12000 kb/s, 60 fps, 15360 tbn (default)\n    Metadata:\n      encoder         : Lavc62.11.100 libx264\n      handler_name    : VideoHandler\n      vendor_id       : [0][0][0][0]\n    Side data:\n      cpb: bitrate max/min/avg: 12000000/0/12000000 buffer size: 12000000 vbv_delay: N/A\nframe=    0 fps=0.0 q=0.0 size=       0KiB time=N/A bitrate=N/A speed=N/A elapsed=0:00:00.50    \nframe=    0 fps=0.0 q=0.0 size=       0KiB time=N/A bitrate=N/A speed=N/A elapsed=0:00:01.32    \nframe=    0 fps=0.0 q=0.0 size=       0KiB time=N/A bitrate=N/A speed=N/A elapsed=0:00:01.96    \nframe=    1 fps=0.4 q=34.0 size=       0KiB time=-00:00:00.01 bitrate=N/A speed=N/A elapsed=0:00:02.67    \nframe=   11 fps=3.3 q=36.0 size=     256KiB time=00:00:00.15 bitrate=13983.6kbits/s speed=0.0449x elapsed=0:00:03.34    \nframe=   24 fps=6.0 q=34.0 size=     512KiB time=00:00:00.33 bitrate=12584.1kbits/s speed=0.0838x elapsed=0:00:03.97    \nframe=   29 fps=6.2 q=34.0 size=     512KiB time=00:00:00.45 bitrate=9321.5kbits/s speed=0.0967x elapsed=0:00:04.65    \nframe=   47 fps=9.0 q=34.0 size=    1024KiB time=00:00:00.75 bitrate=11185.3kbits/s speed=0.143x elapsed=0:00:05.24    \nframe=   48 fps=8.2 q=34.0 size=    1024KiB time=00:00:00.76 bitrate=10942.2kbits/s speed=0.131x elapsed=0:00:05.85    \nframe=   61 fps=9.5 q=33.0 size=    1280KiB time=00:00:00.96 bitrate=10847.7kbits/s speed=0.15x elapsed=0:00:06.43    \nframe=   66 fps=9.5 q=33.0 size=    1536KiB time=00:00:01.06 bitrate=11796.8kbits/s speed=0.153x elapsed=0:00:06.98    \nframe=   74 fps=9.8 q=34.0 size=    1536KiB time=00:00:01.20 bitrate=10486.1kbits/s speed=0.159x elapsed=0:00:07.53    \nframe=   74 fps=9.2 q=34.0 size=    1536KiB time=00:00:01.20 bitrate=10486.1kbits/s speed=0.148x elapsed=0:00:08.08    \nframe=   85 fps=9.8 q=35.0 size=    2048KiB time=00:00:01.36 bitrate=12276.3kbits/s speed=0.158x elapsed=0:00:08.66    \nframe=   93 fps= 10 q=35.0 size=    2304KiB time=00:00:01.51 bitrate=12444.9kbits/s speed=0.164x elapsed=0:00:09.26    \nframe=  105 fps= 11 q=35.0 size=    2560KiB time=00:00:01.70 bitrate=12336.4kbits/s speed=0.173x elapsed=0:00:09.82    \nframe=  110 fps= 11 q=35.0 size=    2560KiB time=00:00:01.80 bitrate=11651.1kbits/s speed=0.172x elapsed=0:00:10.45    \nframe=  128 fps= 12 q=33.0 size=    3072KiB time=00:00:02.06 bitrate=12177.2kbits/s speed=0.187x elapsed=0:00:11.05    \nframe=  130 fps= 11 q=33.0 size=    3072KiB time=00:00:02.13 bitrate=11796.7kbits/s speed=0.182x elapsed=0:00:11.72    \nframe=  145 fps= 12 q=34.0 size=    3328KiB time=00:00:02.36 bitrate=11519.7kbits/s speed=0.191x elapsed=0:00:12.36    \nframe=  152 fps= 12 q=34.0 size=    3584KiB time=00:00:02.45 bitrate=11983.9kbits/s speed=0.189x elapsed=0:00:12.98    \nframe=  164 fps= 12 q=33.0 size=    3840KiB time=00:00:02.65 bitrate=11870.8kbits/s speed=0.195x elapsed=0:00:13.56    \nframe=  175 fps= 12 q=34.0 size=    4096KiB time=00:00:02.76 bitrate=12128.2kbits/s speed=0.195x elapsed=0:00:14.19    \nframe=  186 fps= 13 q=35.0 size=    4352KiB time=00:00:03.06 bitrate=11625.6kbits/s speed=0.207x elapsed=0:00:14.81    \nframe=  186 fps= 12 q=35.0 size=    4352KiB time=00:00:03.06 bitrate=11625.6kbits/s speed=0.199x elapsed=0:00:15.37    \nframe=  192 fps= 12 q=35.0 size=    4608KiB time=00:00:03.16 bitrate=11920.8kbits/s speed=0.199x elapsed=0:00:15.89    \nframe=  202 fps= 12 q=36.0 size=    4864KiB time=00:00:03.33 bitrate=11953.9kbits/s speed=0.203x elapsed=0:00:16.41    \nframe=  207 fps= 12 q=36.0 size=    5120KiB time=00:00:03.41 bitrate=12276.1kbits/s speed=0.202x elapsed=0:00:16.94    \nframe=  207 fps= 12 q=36.0 size=    5120KiB time=00:00:03.41 bitrate=12276.1kbits/s speed=0.195x elapsed=0:00:17.49    \nframe=  225 fps= 12 q=35.0 size=    5376KiB time=00:00:03.71 bitrate=11849.5kbits/s speed=0.206x elapsed=0:00:18.00    \nframe=  232 fps= 13 q=34.0 size=    5376KiB time=00:00:03.83 bitrate=11488.8kbits/s speed=0.207x elapsed=0:00:18.55    \nframe=  245 fps= 13 q=34.0 size=    5888KiB time=00:00:04.05 bitrate=11909.8kbits/s speed=0.211x elapsed=0:00:19.15    \nframe=  258 fps= 13 q=33.0 size=    6144KiB time=00:00:04.25 bitrate=11842.8kbits/s speed=0.215x elapsed=0:00:19.74    \nframe=  268 fps= 13 q=33.0 size=    6400KiB time=00:00:04.43 bitrate=11826.1kbits/s speed=0.218x elapsed=0:00:20.29    \nframe=  282 fps= 13 q=35.0 size=    6656KiB time=00:00:04.65 bitrate=11726.1kbits/s speed=0.223x elapsed=0:00:20.89    \nframe=  287 fps= 13 q=-1.0 size=    6912KiB time=00:00:04.75 bitrate=11920.7kbits/s speed=0.221x elapsed=0:00:21.46    \n[mp4 @ 000001aca0087bc0] Starting second pass: moving the moov atom to the beginning of the file\n[out#0/mp4 @ 000001ac9fff9c40] video:7431KiB audio:0KiB subtitle:0KiB other streams:0KiB global headers:0KiB muxing overhead: 0.046351%\nframe=  300 fps= 14 q=-1.0 Lsize=    7434KiB time=00:00:04.96 bitrate=12262.3kbits/s speed=0.227x elapsed=0:00:21.86    \n[libx264 @ 000001aca0a60340] frame I:2     Avg QP:28.86  size: 91750\n[libx264 @ 000001aca0a60340] frame P:210   Avg QP:33.02  size: 30687\n[libx264 @ 000001aca0a60340] frame B:88    Avg QP:36.25  size: 11147\n[libx264 @ 000001aca0a60340] consecutive B-frames: 50.7% 30.0%  2.0% 17.3%\n[libx264 @ 000001aca0a60340] mb I  I16..4:  0.9% 92.8%  6.3%\n[libx264 @ 000001aca0a60340] mb P  I16..4:  1.4% 21.0%  0.6%  P16..4: 44.8%  6.8%  4.1%  0.0%  0.0%    skip:21.3%\n[libx264 @ 000001aca0a60340] mb B  I16..4:  0.2%  2.8%  0.1%  B16..8: 29.3%  5.3%  0.8%  direct: 2.1%  skip:59.3%  L0:41.0% L1:51.0% BI: 7.9%\n[libx264 @ 000001aca0a60340] 8x8 transform intra:91.5% inter:94.2%\n[libx264 @ 000001aca0a60340] direct mvs  spatial:89.8% temporal:10.2%\n[libx264 @ 000001aca0a60340] coded y,uvDC,uvAC intra: 70.1% 68.1% 20.1% inter: 21.0% 16.8% 0.2%\n[libx264 @ 000001aca0a60340] i16 v,h,dc,p: 23% 26%  6% 45%\n[libx264 @ 000001aca0a60340] i8 v,h,dc,ddl,ddr,vr,hd,vl,hu: 13%  8%  5%  9% 13% 13% 13% 13% 12%\n[libx264 @ 000001aca0a60340] i4 v,h,dc,ddl,ddr,vr,hd,vl,hu: 12%  5%  3%  7% 23% 18% 15%  8%  9%\n[libx264 @ 000001aca0a60340] i8c dc,h,v,p: 54% 16% 16% 15%\n[libx264 @ 000001aca0a60340] Weighted P-Frames: Y:32.9% UV:14.8%\n[libx264 @ 000001aca0a60340] ref P L0: 56.7% 30.5%  6.1%  3.1%  2.1%  1.3%  0.3%\n[libx264 @ 000001aca0a60340] ref B L0: 90.4%  5.6%  3.1%  0.9%\n[libx264 @ 000001aca0a60340] ref B L1: 99.3%  0.7%\n[libx264 @ 000001aca0a60340] kb/s:12173.73\n",
  "seconds": 22.88877296447754,
  "probe_out": {}
}